<svg width="17" height="18" viewBox="0 0 17 18" fill="none" xmlns="http://www.w3.org/2000/svg">
<path d="M16.078 7.43889C15.0419 6.37077 13.7146 5.63083 12.2613 5.31111C11.1943 5.04295 10.1002 4.89756 9.00021 4.87778V1.93333C8.98281 1.43425 8.76848 0.96237 8.40409 0.62089C8.03971 0.279409 7.55492 0.0961212 7.05576 0.111112C6.5566 0.0961212 6.07182 0.279409 5.70743 0.62089C5.34305 0.96237 5.12872 1.43425 5.11132 1.93333V7.48889L4.22243 6.61111C3.83087 6.22702 3.30426 6.01186 2.75576 6.01186C2.20727 6.01186 1.68066 6.22702 1.2891 6.61111C1.09292 6.80065 0.936762 7.02762 0.829883 7.2786C0.723005 7.52957 0.667574 7.79944 0.666875 8.07222C0.656689 8.60111 0.856448 9.1125 1.22243 9.49444L3.81132 12.5611C3.93622 13.3447 4.2056 14.0982 4.60576 14.7833C4.89812 15.3102 5.27328 15.7867 5.71688 16.1944V17.2611C5.71513 17.4132 5.77176 17.5602 5.8751 17.6718C5.97845 17.7834 6.12065 17.8512 6.27243 17.8611H14.0002C14.152 17.8512 14.2942 17.7834 14.3975 17.6718C14.5009 17.5602 14.5575 17.4132 14.5558 17.2611V15.7611C15.6474 14.4613 16.2385 12.814 16.2224 11.1167V7.78333C16.2155 7.65529 16.1644 7.53359 16.078 7.43889ZM15.1113 11.1444C15.1468 12.6215 14.632 14.0591 13.6669 15.1778C13.5442 15.2777 13.4647 15.4209 13.4447 15.5778V16.7778H6.85576V15.9556C6.8559 15.8646 6.83368 15.7749 6.79106 15.6945C6.74844 15.6141 6.68671 15.5454 6.61132 15.4944C6.19497 15.1531 5.85118 14.7319 5.60021 14.2556C5.24632 13.6563 5.0194 12.9907 4.93354 12.3C4.92758 12.1798 4.88274 12.0648 4.80576 11.9722L2.07243 8.73889C1.98341 8.65103 1.91272 8.54637 1.86447 8.43097C1.81623 8.31557 1.79138 8.19174 1.79138 8.06667C1.79138 7.94159 1.81623 7.81776 1.86447 7.70236C1.91272 7.58697 1.98341 7.4823 2.07243 7.39445C2.25535 7.21429 2.5018 7.1133 2.75854 7.1133C3.01529 7.1133 3.26173 7.21429 3.44465 7.39445L5.11132 9.06111V10.8056L6.22243 10.25V1.93333C6.2422 1.72996 6.3401 1.54218 6.49554 1.40954C6.65097 1.27691 6.85181 1.20975 7.05576 1.22222C7.25972 1.20975 7.46056 1.27691 7.61599 1.40954C7.77143 1.54218 7.86933 1.72996 7.8891 1.93333V8.48889L9.00021 8.72778V5.99445C9.46644 6.00364 9.93188 6.03702 10.3947 6.09445V9L11.2835 9.19444V6.22222C11.5113 6.26667 11.7447 6.31667 11.9835 6.37778C12.2716 6.45315 12.5553 6.54402 12.8335 6.65V9.51111L13.7224 9.70556V7.05556C14.2274 7.31047 14.6948 7.63389 15.1113 8.01667V11.1444Z" fill="#4091B2"/>
</svg>
